<svg xmlns="http://www.w3.org/2000/svg" xmlns:xlink="http://www.w3.org/1999/xlink" version="1.1" x="0px" y="0px" viewBox="0 0 100 125" style="enable-background:new 0 0 100 100;" xml:space="preserve"><path d="M74.1,62c-4.3,0-8.6,0-12.8,0c0.3,1.2,0.6,2.3,0.9,3.5c2.6,12.8-5.7,25.7-18.4,28.6c-13.4,3.1-26.5-5-29.7-18.4  c-3.1-13.3,5.5-26.8,18.9-29.5c0.3-0.1,0.6-0.2,0.8-0.4c4.9-4.8,9.7-9.7,14.5-14.6c0.2-0.2,0.5-0.5,0.5-0.6c-0.2,0-0.4,0-0.6,0  c-3.3,0-6.6,0-9.9,0c-0.4,0-0.7,0.1-1,0.3c-5,3.2-10,6.4-15.1,9.6c-0.3,0.2-0.5,0.3-0.8,0.5c-2.7,1.3-5.2-2.2-3-4.4  c4.5-4.5,11-11.2,15.5-15.8c0.2-0.2,0.5-0.3,0.8-0.3c8.4,0,16.8,0,25.2,0c0.2,0,0.5,0,0.6,0.1c3.2,2.1,5.6,4.8,6.7,8.6  c1.2,4.2,0.2,8.1-2.7,11.3c-1.7,2-3.7,3.7-5.5,5.6c-0.5,0.5-0.9,0.9-1.4,1.4c1,0.2,2,0.4,3,0.6c7.1,1.3,14.3,2.7,21.4,4  c0.2,0,0.3,0.1,0.5,0.1c2.9,0.8,4.2,3.1,3.2,6.1c-1.1,3.3-2.2,6.6-3.3,9.9c-1.8,5.5-5.1,14.7-7,19.9c-0.8,2.3-3.5,3.2-5.6,2  c-1.3-0.8-2.1-2.7-1.7-4.2c1.3-6.3,4.7-17,6-23.2C74,62.4,74,62.2,74.1,62z M54.8,70.2c0-9.3-7.5-16.8-16.8-16.8  c-9.3,0-16.9,7.5-16.9,16.9c0,9.3,7.6,16.8,16.9,16.8C47.3,87,54.8,79.5,54.8,70.2z"/><path d="M69.4,4.7c4.2,0,7.3,2.8,7.8,7c0.3,2.7-0.1,5.3-1.4,7.8c-0.9,1.7-2.3,3.1-4.3,3.4c-1.4,0.2-2.7,0-3.9-0.7  c-3.3-1.8-5.5-4.4-6-8.2C60.9,9.3,64.1,4.7,69.4,4.7z"/><text x="0" y="115" fill="#000000" font-size="5px" font-weight="bold" font-family="'Helvetica Neue', Helvetica, Arial-Unicode, Arial, Sans-serif">Created by Moose Icons</text><text x="0" y="120" fill="#000000" font-size="5px" font-weight="bold" font-family="'Helvetica Neue', Helvetica, Arial-Unicode, Arial, Sans-serif">from the Noun Project</text></svg>